<?xml version="1.0" encoding="UTF-8"?>
<svg id="Layer_1" data-name="Layer 1" xmlns="http://www.w3.org/2000/svg" viewBox="0 0 1761.69 1204.84">
  <defs>
    <style>
      .cls-1 {
        fill: #eeeae3;
        fill-rule: evenodd;
        stroke-width: 0px;
      }
    </style>
  </defs>
  <path class="cls-1" d="M1267.6,177.26c5.67-3.33,11.33-6.67,17-10,8.04-11.7,8.08-65.19-4-71-3.33-.33-6.67-.67-10-1-10.4,10.04-12.84,61.88-8,81,1.67.33,3.33.67,5,1Z"/>
  <path class="cls-1" d="M1867.6,1469.26c-18.33-28.33-36.67-56.67-55-85,1.37-14.91,58.16-112.21,69-125v-4c-37.36-23.66-194.84-40.28-264-29-53.67,8.76-104.79,8.24-155,19-66.33,15.33-132.67,30.67-199,46-55.49,13.28-114.2,16.71-172,27-104.26,18.56-281.49,4.89-321-56,2.38-19.39,20.82-27.16,36-34,27.53-12.4,59.66-19.92,94-27,9.67-.33,19.33-.67,29-1,16.99-2.82,42.88-6.82,62-3,5.69,12.34,2.27,39.79,2,56-26.29,9.23-95.56,1.56-129,1l-1,1v3c69.67,68.48,309.67,25.44,405,2,7.19-15.92,2-65.35,2-87v-244c-3-3.67-6-7.33-9-11-5.67-13-11.33-26-17-39-5-7-10-14-15-21,.33-6,.67-12,1-18,.67-.33,1.33-.67,2-1,118.99,28.66,238.01,57.34,357,86,1.84,3.77,2.24,9.56,2,16-10.71,6.81-44.72,41.48-50,52-.33,69.99-.67,140.01-1,210,13.35,2.29,29.1-1.03,42-3,32.51-4.97,104.19-9.6,132-2,1-.33,2-.67,3-1v-4c-19.04-18.45-100.83-21.34-139-23-5.73-12.53-3.36-65.31-1-81-.33-27.33-.67-54.67-1-82,2.92-11.02,38.63-46.5,51-52v-56c-6.39-9.38-30.58-8.6-43-12-27-7.33-54-14.67-81-22-.33-67.33-.67-134.67-1-202,22.53-16.31,64.03-43.58,91-52,1.87-9.59-19.2-19.68-26-25-24-20.66-48-41.34-72-62-55.65-53.58-108.43-109.26-154-173-16.79-23.48-42.96-50.73-53-79v-53c23-13.33,46-26.67,69-40,.33.33.67.67,1,1-1.33,4.33-2.67,8.67-4,13v1c1.67.33,3.33.67,5,1,27.66-24,55.34-48,83-72,7.82-6.21,19.71-11.45,24-21v-1c-2-.33-4-.67-6-1-21.33,16.68-99.45,23.65-113,40,2.33,3,4.67,6,7,9-10.63,12.5-30.58,18.28-45,27-30.66,18-61.34,36-92,54-32.53-13.76-65.61,34.61-99,42-.67,1.67-1.33,3.33-2,5,6,4.33,12,8.67,18,13,1.51,8.28-.96,16.53-4,23,.19,4.63.52,5.53,2,8,29.33-16.67,58.67-33.33,88-50,1-4.67,2-9.33,3-14,3.73-7.26,29.97-20.53,39-22,6.27,54.91-42.33,104.81-66,140-47.43,70.51-96.42,137.79-148,204-27.33,33.33-54.67,66.67-82,100-.33,1.33-.67,2.67-1,4,31.66,9.33,63.34,18.67,95,28,.33,58.66.67,117.34,1,176-19.38,13.72-110.55,45.45-118,58-.33,12.67-.67,25.33-1,38,6.67,2.67,13.33,5.33,20,8,12.25,8.58,18.62,24.77,31,34-.33,45.33-.67,90.67-1,136-22,.67-44,1.33-66,2-71.35,11.92-150.45,19.73-183,70-14.4,22.24-8,75.1-8,110v109c0,14.06-2.21,33.16,2,44,13.24,34.07,52.7,52.09,88,64,112.74,38.04,296.32,18.06,406-7,91.76-20.96,175.91-39.58,268-57,27.33-3,54.67-6,82-9,39.79-6.66,108.82-12.48,154-5,26.66,3.67,53.34,7.33,80,11,25.66,7.67,51.34,15.33,77,23h1c.33-2,.67-4,1-6-11.29-11.69-17.84-27.07-27-41ZM1468.6,677.26c-.33,59.66-.67,119.34-1,179l-1,1c-65.33-15.67-130.67-31.33-196-47v-272c64.99,22.33,130.01,44.67,195,67,7.3,13.06,3,50.51,3,72ZM1242.6,435.26c16.54-33.31,27.08-66.56,40-104,13.71,5.34,45.99,61.62,57,76,32.85,42.87,70.06,83.07,108,121,18,16.67,36,33.33,54,50v1c-93.32-32.33-186.68-64.67-280-97-1.94-12.82,15.29-35.49,21-47ZM1034.6,1521.26c-8.99,3.28-61.52,4.75-73,1v-3c6.52-3.13,18.32-3.5,24-7,3.52-15.97,8.15-86.74,2-102-.33-1-.67-2-1-3-8,3.33-16,6.67-24,10h-1c-.67-2-1.33-4-2-6,16.66-11,33.34-22,50-33,1.67.33,3.33.67,5,1v133c4.29,2.35,12.35,1.91,18,4h2v5ZM1159.6,1509.26c-46.79-9.15-12.52-61.73,8-74v-5c-31.84-12.38-22.68-47.76,1-62,9.67-3.33,19.33-6.67,29-10,52.4-2.13,38.08,44.43,12,59,3.74,12.63,23.2,12.94,28,27,13.09,38.33-38.73,72.67-78,65ZM1352.6,1476.26c-1.9-1.4-.61-.08-2-2,.33-10,.67-20,1-30,2.4-3.33,1.02-2.58,5-2,1.63,10.76,1.42,17.2,10,21,27.17,13.04,57.45-29.64,42-55-6.88-11.3-47.37-18.01-48-20,2-17.33,4-34.67,6-52,17.34-9.89,45.65-7.12,63-17,2,.33,4,.67,6,1,1.19,7.14.22,21.47-3,28-1.36,2.03-1.1,1.63-3,3-2.67-3.33-5.33-6.67-8-10-14,3-28,6-42,9-3.3,5.13-4.7,12.29-3,20,25.48,2.42,53.24,4.42,60,28,11.51,40.16-53.15,98.86-84,78ZM1554.6,1432.26c-.67-1.33-1.33-2.67-2-4,.33-.67.67-1.33,1-2,7.33-1.67,14.67-3.33,22-5,5.01-20.08,9.01-83.84,3-106-10.02-.74-14.82,8.23-26,10h-1c-.67-1-1.33-2-2-3,17.33-13,34.67-26,52-39h3c13.47,26.77-12.8,105.91,1,132,3.46,6.18,9.86,5.01,18,4,1,1.33,2,2.67,3,4-5.66,6.06-58.84,9.02-72,9Z"/>
  <path class="cls-1" d="M1383.6,795.26c-52.42-14.1-78.32-100.37-40-150,20.01-25.92,42.19-20.64,74-15l1-1v-3c-15.36-11.4-30.91-18.76-59-18-31.37,13.48-50.22,23.71-62,56-25.25,69.21,23.9,138.24,78,147,17.48,2.83,31.38-6.05,43-10,1.67-2.33,3.33-4.67,5-7-.33-.67-.67-1.33-1-2-12.36,2.52-24.27,6.96-39,3Z"/>
  <path class="cls-1" d="M1381.6,693.26c-6.42,14.51,6.11,62.85,8,83,1,.67,2,1.33,3,2,.67-.33,1.33-.67,2-1,2.67-23.33,5.33-46.67,8-70,7.67-13,15.33-26,23-39-2.09-1.67-1.97-1.6-6-2-7.44,9.93-25.52,22.82-38,27Z"/>
  <path class="cls-1" d="M1437.6,1013.26c7.22-4.41,17.29-32.11,18-42-.33-.67-.67-1.33-1-2-24.66-5.33-49.34-10.67-74-16,3.67,17.33,7.33,34.67,11,52,6.73,3.81,41.64,9.2,46,8Z"/>
  <path class="cls-1" d="M1375.6,1014.26c3.45-7.27.13-13.92-2-21-1-.67-2-1.33-3-2h-3c-18.47,14.3-38.22,20.11-52,39-23.61,32.35-19,91.29-19,148v73c.33,1,.67,2,1,3l20-5c17.38-95.27-33.44-210.42,58-235Z"/>
  <path class="cls-1" d="M1500.6,1141.26c5.23-1.96,2.8-17.78,1-21-6.76-8.76-30.76-7.95-43-11-26.66-6-53.34-12-80-18-5.67-4.67-11.33-9.33-17-14-2-2.33-4-4.67-6-7,46.66,10,93.34,20,140,30,1-.67,2-1.33,3-2-3.99-40.03-54.23-72.93-103-72-25.72,10.56-45.91,16.7-56,42-12.78,32.05-5.38,130.5-5,175,.67.67,1.33,1.33,2,2,23-5,46-10,69-15,.67-2,1.33-4,2-6-9.67-1.33-19.33-2.67-29-4-6-5-12-10-18-15-1.67-2-3.33-4-5-6v-1c48.38,6.97,96.57,22.96,145,13,.67-1.33,1.33-2.67,2-4v-7c-31.87-16.73-85.87-9.3-122-22-6.33-5-12.67-10-19-15-2-2.33-4-4.67-6-7v-1c32,5.67,64,11.33,96,17,13.66,2.84,36.64,11.74,51,8,1.26-6.23,1.48-15.16-1-20-6.31-8.41-32.41-7.17-44-10-26.33-5.33-52.67-10.67-79-16-6-5-12-10-18-15-1.67-2-3.33-4-5-6v-1c48.33,9.67,96.67,19.33,145,29Z"/>
</svg>