<?xml version="1.0" encoding="UTF-8"?>
<svg id="Layer_1" xmlns="http://www.w3.org/2000/svg" version="1.1" viewBox="0 0 1371.1 628.3">
  <!-- Generator: Adobe Illustrator 30.0.0, SVG Export Plug-In . SVG Version: 2.1.1 Build 123)  -->
  <defs>
    <style>
      .st0 {
        fill: none;
      }

      .st1 {
        fill: #010101;
      }

      .st2 {
        fill: #aa1d37;
      }
    </style>
  </defs>
  <path class="st2" d="M345.5,21.8c0-4.8-4-8.8-8.8-8.8s-8.9,3.9-8.9,8.8v53.2l17.6-10.2V21.8Z"/>
  <polygon class="st0" points="331.5 561.6 485.1 598 485.1 402.9 331.5 349.8 331.5 561.6"/>
  <path class="st0" d="M342.1,188.8c-3.6,22-23.2,66.7-49.5,120.1l224.5,77.7c-97.7-82.9-148.2-159.9-175-197.8Z"/>
  <path class="st2" d="M428.9,551c-30.6-2.9-55.3-35.4-55.3-72.6s24.7-65.1,55.3-62.2c6.8.6,13.2,3,19.3,6.2-10-9-21.9-14.8-34.8-16.1-34.7-3.2-62.8,28.4-62.8,70.6s28.1,79.2,62.8,82.5c14.4,1.4,27.6-3.4,38.2-12.3-6.9,3.1-14.6,4.6-22.7,3.9Z"/>
  <path class="st0" d="M342.1,188.8c-3.6,22-23.2,66.7-49.5,120.1l224.5,77.7c-97.7-82.9-148.2-159.9-175-197.8Z"/>
  <path class="st1" d="M345.5,21.8c0-4.8-4-8.8-8.8-8.8s-8.9,3.9-8.9,8.8v53.2l17.6-10.2V21.8Z"/>
  <polygon class="st1" points="426.5 537.9 434 479.2 451.7 449.7 417.1 473.3 426.5 537.9"/>
  <path class="st1" d="M428.9,551c-30.6-2.9-55.3-35.4-55.3-72.6s24.7-65.1,55.3-62.2c6.8.6,13.2,3,19.3,6.2-10-9-21.9-14.8-34.8-16.1-34.7-3.2-62.8,28.4-62.8,70.6s28.1,79.2,62.8,82.5c14.4,1.4,27.6-3.4,38.2-12.3-6.9,3.1-14.6,4.6-22.7,3.9Z"/>
  <path class="st1" d="M1161.6,309.5c-58.5,0-113.8,16.1-150.4,41.8l10.9-66.2h287.3v-122.1h-292.7l-162.3,245.5,119.4,42.5c37.3-17.4,83.6-23.1,118.3-23.1,50.1,0,81,9.6,81,35.3s-30.8,33.4-81,33.4c-77.1,0-146.5-23.8-182.5-46.3l-81.6,106.7c70.1,46.3,153.6,71.3,264.2,71.3,198.6,0,264.2-77.8,264.2-163.9s-103.5-154.9-194.7-154.9Z"/>
  <g>
    <path class="st1" d="M963,163H404.1c7.5,11,16.8,23.9,28.2,38.4,25.4,32.4,53.6,63.6,84.3,93.4h167.9l-173.4,251.7v-99.8l70.6-41.1h0s-15.1-11.9-15.1-11.9c-153.9-121.5-218-241.8-218.8-243l-2.2-3.7v-40c0,0,0-.2,0-.3l56.8-32.9-3.5,16.1,85.5-72.7-91.6,28.9,6.9,8.8-107.7,62.4-9.6-4.9-67.7,39.3,16.3,11.3-4.9,22.4,67.7-38.7,2.9-11.6,31.1-18v28.6c-.4.8-3.6,6.8-10,17.6h-28.6l-80.8,46.7,10.9-46.7h-21.8c-42.4,37.3-113.8,69.4-174.8,77.8v134.3c47.6-8.4,93.8-19.9,130.5-39.2v277h180v-262.5l151.9,52.6v209.9h180.1l199.1-301.2v.9c-.1,0,98.7-149.6,98.7-149.6ZM333.2,322.9h0s-40.6-14.1-40.6-14.1c17.3-35.2,31.7-66.6,40.6-90.2h0c4.6-12.3,7.7-22.4,8.9-29.9,26.9,38,77.3,115,175,197.8l-183.9-63.7Z"/>
    <polygon class="st1" points="223.8 163 223.8 163 223.8 163 223.8 163"/>
  </g>
</svg>