<?xml version="1.0" encoding="UTF-8"?>
<svg id="Layer_1" data-name="Layer 1" xmlns="http://www.w3.org/2000/svg" viewBox="0 0 1973.72 838.9">
  <defs>
    <style>
      .cls-1, .cls-2 {
        fill: #000;
      }

      .cls-1, .cls-2, .cls-3 {
        stroke-width: 0px;
      }

      .cls-2, .cls-3 {
        fill-rule: evenodd;
      }

      .cls-3 {
        fill: #231f20;
      }
    </style>
  </defs>
  <g>
    <path class="cls-1" d="M704.08,440.43c0-63.62,0-75.04-.82-88.09-.82-13.87-4.08-20.39-17.54-23.25-3.26-.82-10.2-1.22-13.87-1.22-1.63,0-3.26-.82-3.26-2.45,0-2.45,2.04-3.26,6.53-3.26,18.35,0,44.04,1.22,46.08,1.22,4.49,0,35.48-1.22,48.12-1.22,25.69,0,53.02,2.45,74.63,17.94,10.2,7.34,28.14,27.32,28.14,55.46,0,30.18-12.64,60.36-49.35,94.21,33.44,42.82,61.17,79.12,84.83,104.4,22.02,23.25,39.56,27.73,49.75,29.36,7.75,1.22,13.46,1.22,15.91,1.22,2.04,0,3.67,1.22,3.67,2.45,0,2.45-2.45,3.26-9.79,3.26h-28.96c-22.84,0-33.03-2.04-43.64-7.75-17.54-9.38-31.81-29.36-55.06-59.95-17.13-22.43-36.3-49.75-44.45-60.36-1.63-1.63-2.85-2.45-5.3-2.45l-50.16-.82c-2.04,0-2.85,1.22-2.85,3.26v9.79c0,39.15,0,71.37,2.04,88.5,1.22,11.83,3.67,20.8,15.91,22.43,5.71.82,14.68,1.63,18.35,1.63,2.45,0,3.26,1.22,3.26,2.45,0,2.04-2.04,3.26-6.52,3.26-22.43,0-48.12-1.22-50.16-1.22-.41,0-26.1,1.22-38.34,1.22-4.49,0-6.52-.82-6.52-3.26,0-1.22.82-2.45,3.26-2.45,3.67,0,8.56-.82,12.24-1.63,8.16-1.63,10.2-10.6,11.83-22.43,2.04-17.13,2.04-49.35,2.04-88.5v-71.78ZM736.7,475.91c0,2.04.82,3.67,2.85,4.89,6.12,3.67,24.88,6.53,42.82,6.53,9.79,0,21.21-1.22,30.59-7.75,14.27-9.79,24.88-31.81,24.88-62.8,0-50.98-26.92-81.56-70.55-81.56-12.23,0-23.25,1.22-27.32,2.45-2.04.82-3.26,2.45-3.26,4.89v133.36Z"/>
    <path class="cls-1" d="M970.79,440.43c0-63.62,0-75.04-.82-88.09-.82-13.87-4.89-20.8-13.87-22.84-4.49-1.22-9.79-1.63-12.64-1.63-1.63,0-3.26-.82-3.26-2.45,0-2.45,2.04-3.26,6.53-3.26,13.46,0,39.15,1.22,41.19,1.22s27.73-1.22,39.97-1.22c4.49,0,6.53.82,6.53,3.26,0,1.63-1.63,2.45-3.26,2.45-2.86,0-5.3.41-10.2,1.22-11.01,2.04-14.27,8.97-15.09,23.25-.82,13.05-.82,24.47-.82,88.09v71.78c0,39.15,0,71.37,2.04,88.5,1.22,11.83,3.67,20.8,15.9,22.43,5.71.82,14.27,1.63,16.72,1.63,3.67,0,4.89,1.22,4.89,2.45,0,2.04-1.63,3.26-6.12,3.26-22.43,0-48.53-1.22-50.57-1.22s-27.73,1.22-39.97,1.22c-4.49,0-6.52-.82-6.52-3.26,0-1.22.82-2.45,4.49-2.45,2.45,0,6.93-.41,10.6-1.22,8.16-1.63,10.6-11.01,12.23-22.84,2.04-17.13,2.04-49.35,2.04-88.5v-71.78Z"/>
    <path class="cls-1" d="M1109.45,440.43c0-63.62,0-75.04-.82-88.09-.82-13.87-4.08-20.39-17.54-23.25-3.26-.82-10.2-1.22-13.87-1.22-1.63,0-3.26-.82-3.26-2.45,0-2.45,2.04-3.26,6.53-3.26,18.35,0,42.82,1.22,46.08,1.22,8.97,0,32.63-1.22,51.39-1.22,50.98,0,69.33,17.13,75.85,23.25,8.97,8.56,20.39,26.92,20.39,53.42,0,53.02-42.41,92.17-100.32,92.17-2.04,0-6.53,0-8.56-.41-2.04,0-4.49-.82-4.49-2.85,0-3.26,2.45-3.67,11.01-3.67,39.56,0,70.55-26.92,70.55-69.74,0-10.2-1.22-37.52-22.84-59.54s-46.49-20.39-55.87-20.39c-6.93,0-13.87.82-17.54,2.45-2.45.82-3.26,3.67-3.26,7.75v167.61c0,39.15,0,71.37,2.04,88.5,1.22,11.83,3.67,20.8,15.91,22.43,5.71.82,14.68,1.63,18.35,1.63,2.45,0,3.26,1.22,3.26,2.45,0,2.04-2.04,3.26-6.53,3.26-22.43,0-48.12-1.22-50.16-1.22-1.22,0-26.92,1.22-39.15,1.22-4.49,0-6.52-.82-6.52-3.26,0-1.22.82-2.45,3.26-2.45,3.67,0,8.56-.82,12.24-1.63,8.16-1.63,10.2-10.6,11.83-22.43,2.04-17.13,2.04-49.35,2.04-88.5v-71.78Z"/>
    <path class="cls-1" d="M1284,475.91c0-66.07,48.12-159.46,160.68-159.46,91.76,0,160.27,57.91,160.27,152.93s-64.44,166.8-162.72,166.8c-111.74,0-158.23-86.87-158.23-160.27ZM1565.8,480.81c0-97.88-59.54-150.49-123.98-150.49-68.11,0-119.08,44.86-119.08,134.17,0,95.02,57.09,156.2,130.5,156.2,36.7,0,112.56-21.21,112.56-139.88Z"/>
    <path class="cls-1" d="M1645.33,510.17c0-147.22.82-94.21.41-173.32,0-15.9,1.22-20.39,4.49-20.39s10.2,8.97,14.27,13.05c6.12,6.93,66.88,72.59,129.69,139.88,40.37,43.23,84.83,92.98,97.88,106.44l-4.49-207.17c-.41-26.51-3.26-35.48-15.9-38.74-7.34-1.63-13.87-2.04-17.54-2.04-4.49,0-5.71-1.22-5.71-2.85,0-2.45,3.26-2.85,8.16-2.86,18.35,0,37.93,1.22,42.41,1.22s17.94-1.22,34.66-1.22c4.49,0,7.34.41,7.34,2.85,0,1.63-1.63,2.45-4.49,2.85-3.26.41-5.71.82-10.6,1.63-11.42,2.45-14.27,8.56-14.27,36.7l-.82,238.17c0,26.92-.82,28.96-3.67,28.96-3.26,0-8.16-4.49-29.77-26.1-4.49-4.08-63.21-64.03-106.44-110.52-47.31-50.98-93.39-102.36-106.44-117.04l5.3,195.35c.82,33.44,4.89,44.04,15.91,47.31,7.75,2.04,16.72,2.45,20.39,2.45,2.04,0,3.26.82,3.26,2.45,0,2.45-2.45,3.26-7.34,3.26-23.25,0-39.56-1.22-43.23-1.22s-20.8,1.22-39.15,1.22c-4.08,0-6.53-.41-6.53-3.26,0-1.63,1.22-2.45,3.26-2.45,3.26,0,10.6-.41,16.72-2.45,10.2-2.86,12.23-14.68,12.23-51.79v-60.36Z"/>
  </g>
  <g>
    <path class="cls-1" d="M1042.9,740.05c-8.1-7.05-10.2-16.4-10.2-24.31,0-5.34,2.1-14.78,9.63-22.02,5.15-4.96,12.87-8.48,25.64-8.48,4.38,0,7.91.38,12.58,1.05,3.05.48,6.1.95,8.39,1.05.76,0,.86.48.86.95,0,.76-.29,1.62-.48,4.67-.09,2.67-.09,7.63-.19,8.77-.09,1.33-.29,1.81-.76,1.81-.67,0-.76-.57-.76-1.81,0-2.76-1.33-6.48-3.72-8.29-2.86-2.48-9.53-4.86-16.87-4.86-10.58,0-15.44,2.96-18.3,5.53-6.2,5.62-7.63,12.49-7.63,20.88,0,15.82,12.87,29.74,29.65,29.74,6.48,0,11.25-.67,14.58-3.91,1.72-1.81,2.67-4.19,3.15-6.86.19-.95.48-1.43,1.05-1.43.48,0,.48.67.48,1.33,0,.76-1.24,8.48-1.91,10.58-.57,1.53-.86,1.81-2.19,2.38-3.34,1.43-9.72,1.91-15.06,1.91-12.58,0-21.16-2.86-27.93-8.67Z"/>
    <path class="cls-1" d="M1119.35,716.89c0-12.68,9.82-31.65,33.36-31.65,18.87,0,33.27,11.25,33.27,30.41s-13.44,33.08-33.74,33.08c-23.35,0-32.89-17.35-32.89-31.84ZM1177.02,718.03c0-19.16-11.82-29.83-24.88-29.83s-23.93,8.2-23.93,26.21,10.39,31.08,26.4,31.08c6.39,0,22.4-3.24,22.4-27.45Z"/>
    <path class="cls-1" d="M1232.03,724.32c0,10.96.38,16.49,2,18.02,1.53,1.33,3.43,1.91,10.01,1.91,4.19,0,8.01,0,10.1-2.67.95-1.43,1.62-3.34,1.81-4.77.1-.76.29-1.14.76-1.14.38,0,.57.29.57,1.24s-.57,6.39-1.14,8.58c-.57,1.91-.48,2.38-5.05,2.38-6.48,0-13.63-.48-23.16-.48-3.15,0-5.05.29-8.39.29-.95,0-1.53-.19-1.53-.76,0-.29.29-.57,1.05-.57s1.52,0,2.29-.19c1.62-.29,2.19-2.19,2.48-4.48.57-3.62.38-10.2.38-17.54v-14.3c0-12.58,0-14.68-.19-17.25-.19-2.67-.57-4.38-3.81-4.77-.57-.09-1.62-.09-2.38-.09-.67,0-1.05-.29-1.05-.67,0-.48.48-.67,1.43-.67,4,0,9.72.29,9.91.29,1.33,0,7.15-.29,9.82-.29.95,0,1.24.29,1.24.67s-.48.67-1.05.67c-.67,0-1.62.09-2.57.19-2.67.38-3.24,1.91-3.43,4.67-.19,2.57-.1,4.67-.1,17.25v14.49Z"/>
    <path class="cls-1" d="M1301.05,724.32c0,10.96.38,16.49,2,18.02,1.53,1.33,3.43,1.91,10.01,1.91,4.19,0,8.01,0,10.1-2.67.95-1.43,1.62-3.34,1.81-4.77.1-.76.29-1.14.76-1.14.38,0,.57.29.57,1.24s-.57,6.39-1.14,8.58c-.57,1.91-.48,2.38-5.05,2.38-6.48,0-13.63-.48-23.16-.48-3.15,0-5.05.29-8.39.29-.95,0-1.53-.19-1.53-.76,0-.29.29-.57,1.05-.57s1.52,0,2.29-.19c1.62-.29,2.19-2.19,2.48-4.48.57-3.62.38-10.2.38-17.54v-14.3c0-12.58,0-14.68-.19-17.25-.19-2.67-.57-4.38-3.81-4.77-.57-.09-1.62-.09-2.38-.09-.67,0-1.05-.29-1.05-.67,0-.48.48-.67,1.43-.67,4,0,9.72.29,9.91.29,1.33,0,7.15-.29,9.82-.29.95,0,1.24.29,1.24.67s-.48.67-1.05.67c-.67,0-1.62.09-2.57.19-2.67.38-3.24,1.91-3.43,4.67-.19,2.57-.1,4.67-.1,17.25v14.49Z"/>
    <path class="cls-1" d="M1362.25,709.83c0-12.49,0-14.78-.19-17.35-.19-2.67-.86-4-3.62-4.58-.57-.1-1.53-.19-2.29-.19-.67,0-1.24-.29-1.24-.57,0-.57.48-.76,1.43-.76,1.91,0,4.48.19,9.82.29.48,0,17.44,0,19.35-.1,1.91-.09,2.96-.19,3.72-.48.57-.19.67-.29,1.05-.29.19,0,.38.19.38.67,0,.57-.57,1.91-.76,4.29-.09,1.62-.19,3.15-.29,4.96,0,.86-.19,1.43-.67,1.43s-.67-.38-.67-1.05c-.1-1.43-.38-2.38-.67-3.05-.57-1.91-1.43-2.57-6.2-2.86-1.24-.09-10.68-.19-10.87-.19-.29,0-.48.19-.48.76v21.64c0,.57.1.95.57.95,1.14,0,10.87-.09,12.87-.29,2.19-.1,3.62-.38,4.38-1.43.38-.57.67-.76,1.05-.76.19,0,.38.09.38.57s-.38,2.29-.67,5.05c-.29,2.67-.29,4.58-.38,5.81-.1.76-.29,1.05-.67,1.05-.48,0-.57-.57-.57-1.24,0-.57-.1-1.53-.29-2.29-.38-1.24-.95-2.57-4.58-2.86-2.19-.19-9.91-.38-11.44-.38-.57,0-.67.29-.67.67v6.96c0,2.96-.09,11.34,0,12.96.19,3.53.67,5.34,2.67,6.2,1.43.67,3.72.86,6.96.86,1.81,0,4.86.09,7.24-.57,2.86-.86,3.53-2.76,4.29-6.29.19-.95.48-1.33.86-1.33.57,0,.57.86.57,1.43,0,.67-.76,6.67-1.05,8.29-.38,1.91-1.05,2.1-4.19,2.1-6.29,0-8.96-.19-12.3-.19-3.34-.1-7.72-.29-11.25-.29-2.19,0-4,.29-6.29.29-.86,0-1.33-.19-1.33-.67,0-.38.38-.67.86-.67.57,0,1.24-.09,1.91-.29,1.72-.38,2.86-1.62,3.05-7.53.1-3.24.19-7.15.19-14.39v-14.3Z"/>
    <path class="cls-1" d="M1480.35,740.62c0,3.81-.09,3.91-1.14,4.48-5.24,2.67-12.87,3.62-17.54,3.62-6.2,0-18.21-.48-27.93-8.58-5.15-4.29-10.29-12.3-10.29-23.16,0-12.96,6.58-22.21,14.39-26.88,7.34-4.29,15.44-4.86,21.26-4.86,6.1,0,10.2.76,13.63,1.33,1.52.29,5.24.76,7.24.86.76,0,.76.38.76.76,0,1.14-.67,4-.67,12.39,0,1.33-.09,1.72-.76,1.72-.48,0-.57-.57-.67-1.14,0-.86-.38-3.81-1.81-5.91-2.19-3.15-9.06-6.67-19.73-6.67-5.15,0-11.15.19-17.54,5.05-4.86,3.72-8.01,10.96-8.01,20.4,0,11.34,6.2,19.73,8.67,22.11,6.29,6.1,13.34,8.87,21.64,8.87,2.67,0,6.86-.48,9.06-1.62.95-.57,1.62-1.52,1.62-2.86v-13.73c0-6.29-.48-7.53-3.81-8.01-.57-.09-1.53-.19-2.29-.19s-1.14-.38-1.14-.67c0-.48.38-.67,1.43-.67,3.81,0,9.34.19,9.72.19s6.01-.19,8.58-.19c.95,0,1.33.19,1.33.67,0,.29-.29.67-1.14.67-.67,0-.86,0-1.62.1-2.29.29-2.86,2-3.05,4.77-.19,2.76-.19,5.15-.19,8.58v8.58Z"/>
    <path class="cls-1" d="M1524.59,709.83c0-12.49,0-14.78-.19-17.35-.19-2.67-.86-4-3.62-4.58-.57-.1-1.53-.19-2.29-.19-.67,0-1.24-.29-1.24-.57,0-.57.48-.76,1.43-.76,1.91,0,4.48.19,9.82.29.48,0,17.44,0,19.35-.1,1.91-.09,2.96-.19,3.72-.48.57-.19.67-.29,1.05-.29.19,0,.38.19.38.67,0,.57-.57,1.91-.76,4.29-.09,1.62-.19,3.15-.29,4.96,0,.86-.19,1.43-.67,1.43s-.67-.38-.67-1.05c-.1-1.43-.38-2.38-.67-3.05-.57-1.91-1.43-2.57-6.2-2.86-1.24-.09-10.68-.19-10.87-.19-.29,0-.48.19-.48.76v21.64c0,.57.1.95.57.95,1.14,0,10.87-.09,12.87-.29,2.19-.1,3.62-.38,4.38-1.43.38-.57.67-.76,1.05-.76.19,0,.38.09.38.57s-.38,2.29-.67,5.05c-.29,2.67-.29,4.58-.38,5.81-.1.76-.29,1.05-.67,1.05-.48,0-.57-.57-.57-1.24,0-.57-.1-1.53-.29-2.29-.38-1.24-.95-2.57-4.58-2.86-2.19-.19-9.91-.38-11.44-.38-.57,0-.67.29-.67.67v6.96c0,2.96-.09,11.34,0,12.96.19,3.53.67,5.34,2.67,6.2,1.43.67,3.72.86,6.96.86,1.81,0,4.86.09,7.24-.57,2.86-.86,3.53-2.76,4.29-6.29.19-.95.48-1.33.86-1.33.57,0,.57.86.57,1.43,0,.67-.76,6.67-1.05,8.29-.38,1.91-1.05,2.1-4.19,2.1-6.29,0-8.96-.19-12.3-.19-3.34-.1-7.72-.29-11.25-.29-2.19,0-4,.29-6.29.29-.86,0-1.33-.19-1.33-.67,0-.38.38-.67.86-.67.57,0,1.24-.09,1.91-.29,1.72-.38,2.86-1.62,3.05-7.53.1-3.24.19-7.15.19-14.39v-14.3Z"/>
  </g>
  <rect class="cls-1" x="670.19" y="713.94" width="316.16" height="6.56"/>
  <rect class="cls-1" x="1598.12" y="713.94" width="316.16" height="6.56"/>
  <g>
    <path class="cls-3" d="M321.15,101.04c2.78-1.63,5.56-3.27,8.33-4.9,3.94-5.74,3.96-31.96-1.96-34.81-1.63-.16-3.27-.33-4.9-.49-5.1,4.92-6.3,30.34-3.92,39.71.82.16,1.63.33,2.45.49Z"/>
    <path class="cls-2" d="M615.31,734.46c-8.99-13.89-17.98-27.78-26.96-41.67.67-7.31,28.51-55.01,33.83-61.28v-1.96c-18.31-11.6-95.53-19.75-129.43-14.22-26.31,4.29-51.38,4.04-75.99,9.32-32.52,7.52-65.05,15.04-97.56,22.55-27.21,6.51-55.99,8.19-84.33,13.24-51.11,9.1-138,2.4-157.38-27.45,1.17-9.51,10.21-13.32,17.65-16.67,13.5-6.08,29.25-9.77,46.09-13.24,4.74-.16,9.48-.33,14.22-.49,8.33-1.38,21.02-3.34,30.4-1.47,2.79,6.05,1.11,19.51.98,27.45-12.89,4.52-46.85.77-63.24.49l-.49.49v1.47c34.15,33.58,151.82,12.47,198.56.98,3.53-7.81.98-32.04.98-42.65v-119.63c-1.47-1.8-2.94-3.6-4.41-5.39-2.78-6.37-5.56-12.75-8.33-19.12-2.45-3.43-4.9-6.86-7.35-10.3.16-2.94.33-5.88.49-8.82.33-.16.65-.33.98-.49,58.34,14.05,116.69,28.11,175.03,42.16.9,1.85,1.1,4.69.98,7.84-5.25,3.34-21.92,20.34-24.51,25.49-.16,34.32-.33,68.64-.49,102.96,6.55,1.12,14.26-.5,20.59-1.47,15.94-2.44,51.08-4.71,64.72-.98.49-.16.98-.33,1.47-.49v-1.96c-9.33-9.05-49.44-10.46-68.15-11.28-2.81-6.14-1.65-32.02-.49-39.71-.16-13.4-.33-26.8-.49-40.2,1.43-5.4,18.94-22.8,25-25.49v-27.45c-3.14-4.6-14.99-4.21-21.08-5.88-13.24-3.59-26.48-7.19-39.71-10.79-.16-33.01-.33-66.03-.49-99.03,11.05-8,31.39-21.36,44.61-25.49.92-4.7-9.41-9.65-12.75-12.26-11.77-10.13-23.53-20.27-35.3-30.4-27.29-26.27-53.16-53.57-75.5-84.82-8.23-11.51-21.06-24.87-25.98-38.73v-25.98c11.28-6.54,22.55-13.07,33.83-19.61.16.16.33.33.49.49-.65,2.12-1.31,4.25-1.96,6.37v.49c.82.16,1.63.33,2.45.49,13.56-11.77,27.13-23.53,40.69-35.3,3.83-3.04,9.66-5.62,11.77-10.3v-.49c-.98-.16-1.96-.33-2.94-.49-10.46,8.18-48.76,11.6-55.4,19.61,1.14,1.47,2.29,2.94,3.43,4.41-5.21,6.13-14.99,8.96-22.06,13.24-15.03,8.82-30.07,17.65-45.1,26.47-15.95-6.75-32.17,16.97-48.54,20.59-.33.82-.65,1.63-.98,2.45,2.94,2.12,5.88,4.25,8.82,6.37.74,4.06-.47,8.1-1.96,11.28.09,2.27.25,2.71.98,3.92,14.38-8.17,28.76-16.34,43.14-24.51.49-2.29.98-4.58,1.47-6.86,1.83-3.56,14.69-10.07,19.12-10.79,3.08,26.92-20.75,51.39-32.36,68.64-23.25,34.57-47.27,67.55-72.56,100.01-13.4,16.34-26.8,32.69-40.2,49.03-.16.65-.33,1.31-.49,1.96,15.52,4.58,31.05,9.15,46.58,13.73.16,28.76.33,57.53.49,86.29-9.5,6.73-54.2,22.28-57.85,28.44-.16,6.21-.33,12.42-.49,18.63,3.27,1.31,6.54,2.61,9.81,3.92,6.01,4.2,9.13,12.14,15.2,16.67-.16,22.22-.33,44.45-.49,66.68-10.78.33-21.57.65-32.36.98-34.98,5.85-73.76,9.67-89.72,34.32-7.06,10.9-3.92,36.82-3.92,53.93v53.44c0,6.89-1.08,16.26.98,21.57,6.49,16.7,25.84,25.54,43.14,31.38,55.27,18.65,145.27,8.85,199.05-3.43,44.98-10.28,86.24-19.4,131.39-27.95,13.4-1.47,26.8-2.94,40.2-4.41,19.51-3.27,53.35-6.12,75.5-2.45,13.07,1.8,26.15,3.6,39.22,5.39,12.58,3.76,25.17,7.52,37.75,11.28h.49c.16-.98.33-1.96.49-2.94-5.54-5.73-8.75-13.27-13.24-20.1ZM419.69,346.17c-.16,29.25-.33,58.51-.49,87.76l-.49.49c-32.03-7.68-64.06-15.36-96.09-23.04v-133.35c31.86,10.95,63.74,21.9,95.6,32.85,3.58,6.4,1.47,24.76,1.47,35.3ZM308.89,227.53c8.11-16.33,13.27-32.63,19.61-50.99,6.72,2.62,22.55,30.21,27.95,37.26,16.1,21.02,34.35,40.72,52.95,59.32,8.82,8.17,17.65,16.34,26.47,24.51v.49c-45.75-15.85-91.52-31.71-137.27-47.56-.95-6.29,7.49-17.4,10.3-23.04ZM206.92,759.96c-4.41,1.61-30.16,2.33-35.79.49v-1.47c3.2-1.53,8.98-1.72,11.77-3.43,1.72-7.83,4-42.52.98-50.01-.16-.49-.33-.98-.49-1.47-3.92,1.63-7.84,3.27-11.77,4.9h-.49c-.33-.98-.65-1.96-.98-2.94,8.17-5.39,16.34-10.79,24.51-16.18.82.16,1.63.33,2.45.49v65.21c2.1,1.15,6.06.94,8.82,1.96h.98v2.45ZM268.2,754.07c-22.94-4.48-6.14-30.27,3.92-36.28v-2.45c-15.61-6.07-11.12-23.42.49-30.4,4.74-1.63,9.48-3.27,14.22-4.9,25.69-1.04,18.67,21.78,5.88,28.93,1.84,6.19,11.37,6.35,13.73,13.24,6.42,18.79-18.99,35.63-38.24,31.87ZM362.82,737.89c-.93-.69-.3-.04-.98-.98.16-4.9.33-9.81.49-14.71,1.18-1.63.5-1.27,2.45-.98.8,5.27.7,8.43,4.9,10.3,13.32,6.39,28.17-14.53,20.59-26.96-3.37-5.54-23.22-8.83-23.53-9.81.98-8.5,1.96-17,2.94-25.49,8.5-4.85,22.38-3.49,30.89-8.33.98.16,1.96.33,2.94.49.58,3.5.11,10.53-1.47,13.73-.67.99-.54.8-1.47,1.47-1.31-1.63-2.61-3.27-3.92-4.9-6.86,1.47-13.73,2.94-20.59,4.41-1.62,2.51-2.31,6.03-1.47,9.81,12.49,1.19,26.1,2.17,29.42,13.73,5.65,19.69-26.06,48.47-41.18,38.24ZM461.85,716.32c-.33-.65-.65-1.31-.98-1.96.16-.33.33-.65.49-.98,3.59-.82,7.19-1.63,10.79-2.45,2.46-9.85,4.42-41.1,1.47-51.97-4.91-.36-7.26,4.04-12.75,4.9h-.49c-.33-.49-.65-.98-.98-1.47,8.5-6.37,17-12.75,25.49-19.12h1.47c6.6,13.13-6.28,51.92.49,64.72,1.7,3.03,4.83,2.46,8.82,1.96.49.65.98,1.31,1.47,1.96-2.77,2.97-28.85,4.42-35.3,4.41Z"/>
    <path class="cls-3" d="M378.02,404.02c-25.7-6.92-38.4-49.21-19.61-73.54,9.81-12.71,20.68-10.12,36.28-7.35l.49-.49v-1.47c-7.53-5.59-15.15-9.2-28.93-8.82-15.38,6.61-24.62,11.62-30.4,27.45-12.38,33.93,11.72,67.77,38.24,72.07,8.57,1.39,15.38-2.97,21.08-4.9.82-1.14,1.63-2.29,2.45-3.43-.16-.33-.33-.65-.49-.98-6.06,1.23-11.9,3.41-19.12,1.47Z"/>
    <path class="cls-3" d="M377.04,354.02c-3.15,7.11,3,30.81,3.92,40.69.49.33.98.65,1.47.98.33-.16.65-.33.98-.49,1.31-11.44,2.61-22.88,3.92-34.32,3.76-6.37,7.52-12.75,11.28-19.12-1.02-.82-.97-.78-2.94-.98-3.65,4.87-12.51,11.19-18.63,13.24Z"/>
    <path class="cls-3" d="M404.49,510.9c3.54-2.16,8.48-15.74,8.82-20.59-.16-.33-.33-.65-.49-.98-12.09-2.61-24.19-5.23-36.28-7.84,1.8,8.5,3.6,17,5.39,25.49,3.3,1.87,20.41,4.51,22.55,3.92Z"/>
    <path class="cls-3" d="M374.1,511.39c1.69-3.56.06-6.83-.98-10.3-.49-.33-.98-.65-1.47-.98h-1.47c-9.05,7.01-18.74,9.86-25.49,19.12-11.58,15.86-9.32,44.76-9.32,72.56v35.79c.16.49.33.98.49,1.47,3.27-.82,6.54-1.63,9.81-2.45,8.52-46.71-16.39-103.16,28.44-115.21Z"/>
    <path class="cls-3" d="M435.38,573.65c2.56-.96,1.37-8.72.49-10.3-3.32-4.29-15.08-3.9-21.08-5.39-13.07-2.94-26.15-5.88-39.22-8.82-2.78-2.29-5.56-4.58-8.33-6.86-.98-1.14-1.96-2.29-2.94-3.43,22.88,4.9,45.76,9.81,68.64,14.71.49-.33.98-.65,1.47-.98-1.96-19.63-26.59-35.75-50.5-35.3-12.61,5.18-22.51,8.19-27.45,20.59-6.27,15.71-2.64,63.98-2.45,85.8.33.33.65.65.98.98,11.28-2.45,22.55-4.9,33.83-7.35.33-.98.65-1.96.98-2.94-4.74-.65-9.48-1.31-14.22-1.96-2.94-2.45-5.88-4.9-8.82-7.35-.82-.98-1.63-1.96-2.45-2.94v-.49c23.72,3.42,47.34,11.26,71.09,6.37.33-.65.65-1.31.98-1.96v-3.43c-15.63-8.2-42.1-4.56-59.81-10.79-3.1-2.45-6.21-4.9-9.32-7.35-.98-1.14-1.96-2.29-2.94-3.43v-.49c15.69,2.78,31.38,5.56,47.07,8.33,6.7,1.39,17.96,5.76,25,3.92.62-3.06.72-7.43-.49-9.81-3.09-4.12-15.89-3.52-21.57-4.9-12.91-2.61-25.82-5.23-38.73-7.84-2.94-2.45-5.88-4.9-8.82-7.35-.82-.98-1.63-1.96-2.45-2.94v-.49c23.69,4.74,47.39,9.48,71.09,14.22Z"/>
    <path class="cls-3" d="M284.38,708.97c5.4-3.48,14.49-17.95,3.92-22.55-1.96-.16-3.92-.33-5.88-.49-5.36,3.9-10.27,5.34-10.3,14.71,3.12,3.68,6.06,7.79,12.26,8.33Z"/>
    <path class="cls-3" d="M279.96,718.28c-5.73,4.43-19.42,25.46-3.92,29.91,16.45,4.72,28.96-23.14,3.92-29.91Z"/>
  </g>
</svg>