<?xml version="1.0" encoding="UTF-8"?>
<svg id="Layer_1" data-name="Layer 1" xmlns="http://www.w3.org/2000/svg" viewBox="0 0 1973.72 838.9">
  <defs>
    <style>
      .cls-1 {
        fill-rule: evenodd;
        stroke: #fff;
        stroke-miterlimit: 10;
      }

      .cls-1, .cls-2 {
        fill: #fff;
      }

      .cls-2 {
        stroke-width: 0px;
      }
    </style>
  </defs>
  <g>
    <path class="cls-2" d="M704.08,440.43c0-63.62,0-75.04-.82-88.09-.82-13.87-4.08-20.39-17.54-23.25-3.26-.82-10.2-1.22-13.87-1.22-1.63,0-3.26-.82-3.26-2.45,0-2.45,2.04-3.26,6.53-3.26,18.35,0,44.04,1.22,46.08,1.22,4.49,0,35.48-1.22,48.12-1.22,25.69,0,53.02,2.45,74.63,17.94,10.2,7.34,28.14,27.32,28.14,55.46,0,30.18-12.64,60.36-49.35,94.21,33.44,42.82,61.17,79.12,84.83,104.4,22.02,23.25,39.56,27.73,49.75,29.36,7.75,1.22,13.46,1.22,15.91,1.22,2.04,0,3.67,1.22,3.67,2.45,0,2.45-2.45,3.26-9.79,3.26h-28.96c-22.84,0-33.03-2.04-43.64-7.75-17.54-9.38-31.81-29.36-55.06-59.95-17.13-22.43-36.3-49.75-44.45-60.36-1.63-1.63-2.85-2.45-5.3-2.45l-50.16-.82c-2.04,0-2.85,1.22-2.85,3.26v9.79c0,39.15,0,71.37,2.04,88.5,1.22,11.83,3.67,20.8,15.91,22.43,5.71.82,14.68,1.63,18.35,1.63,2.45,0,3.26,1.22,3.26,2.45,0,2.04-2.04,3.26-6.52,3.26-22.43,0-48.12-1.22-50.16-1.22-.41,0-26.1,1.22-38.34,1.22-4.49,0-6.52-.82-6.52-3.26,0-1.22.82-2.45,3.26-2.45,3.67,0,8.56-.82,12.24-1.63,8.16-1.63,10.2-10.6,11.83-22.43,2.04-17.13,2.04-49.35,2.04-88.5v-71.78ZM736.7,475.91c0,2.04.82,3.67,2.85,4.89,6.12,3.67,24.88,6.53,42.82,6.53,9.79,0,21.21-1.22,30.59-7.75,14.27-9.79,24.88-31.81,24.88-62.8,0-50.98-26.92-81.56-70.55-81.56-12.23,0-23.25,1.22-27.32,2.45-2.04.82-3.26,2.45-3.26,4.89v133.36Z"/>
    <path class="cls-2" d="M970.79,440.43c0-63.62,0-75.04-.82-88.09-.82-13.87-4.89-20.8-13.87-22.84-4.49-1.22-9.79-1.63-12.64-1.63-1.63,0-3.26-.82-3.26-2.45,0-2.45,2.04-3.26,6.53-3.26,13.46,0,39.15,1.22,41.19,1.22s27.73-1.22,39.97-1.22c4.49,0,6.53.82,6.53,3.26,0,1.63-1.63,2.45-3.26,2.45-2.86,0-5.3.41-10.2,1.22-11.01,2.04-14.27,8.97-15.09,23.25-.82,13.05-.82,24.47-.82,88.09v71.78c0,39.15,0,71.37,2.04,88.5,1.22,11.83,3.67,20.8,15.9,22.43,5.71.82,14.27,1.63,16.72,1.63,3.67,0,4.89,1.22,4.89,2.45,0,2.04-1.63,3.26-6.12,3.26-22.43,0-48.53-1.22-50.57-1.22s-27.73,1.22-39.97,1.22c-4.49,0-6.52-.82-6.52-3.26,0-1.22.82-2.45,4.49-2.45,2.45,0,6.93-.41,10.6-1.22,8.16-1.63,10.6-11.01,12.23-22.84,2.04-17.13,2.04-49.35,2.04-88.5v-71.78Z"/>
    <path class="cls-2" d="M1109.45,440.43c0-63.62,0-75.04-.82-88.09-.82-13.87-4.08-20.39-17.54-23.25-3.26-.82-10.2-1.22-13.87-1.22-1.63,0-3.26-.82-3.26-2.45,0-2.45,2.04-3.26,6.53-3.26,18.35,0,42.82,1.22,46.08,1.22,8.97,0,32.63-1.22,51.39-1.22,50.98,0,69.33,17.13,75.85,23.25,8.97,8.56,20.39,26.92,20.39,53.42,0,53.02-42.41,92.17-100.32,92.17-2.04,0-6.53,0-8.56-.41-2.04,0-4.49-.82-4.49-2.85,0-3.26,2.45-3.67,11.01-3.67,39.56,0,70.55-26.92,70.55-69.74,0-10.2-1.22-37.52-22.84-59.54s-46.49-20.39-55.87-20.39c-6.93,0-13.87.82-17.54,2.45-2.45.82-3.26,3.67-3.26,7.75v167.61c0,39.15,0,71.37,2.04,88.5,1.22,11.83,3.67,20.8,15.91,22.43,5.71.82,14.68,1.63,18.35,1.63,2.45,0,3.26,1.22,3.26,2.45,0,2.04-2.04,3.26-6.53,3.26-22.43,0-48.12-1.22-50.16-1.22-1.22,0-26.92,1.22-39.15,1.22-4.49,0-6.52-.82-6.52-3.26,0-1.22.82-2.45,3.26-2.45,3.67,0,8.56-.82,12.24-1.63,8.16-1.63,10.2-10.6,11.83-22.43,2.04-17.13,2.04-49.35,2.04-88.5v-71.78Z"/>
    <path class="cls-2" d="M1284,475.91c0-66.07,48.12-159.46,160.68-159.46,91.76,0,160.27,57.91,160.27,152.93s-64.44,166.8-162.72,166.8c-111.74,0-158.23-86.87-158.23-160.27ZM1565.8,480.81c0-97.88-59.54-150.49-123.98-150.49-68.11,0-119.08,44.86-119.08,134.17,0,95.02,57.09,156.2,130.5,156.2,36.7,0,112.56-21.21,112.56-139.88Z"/>
    <path class="cls-2" d="M1645.33,510.17c0-147.22.82-94.21.41-173.32,0-15.9,1.22-20.39,4.49-20.39s10.2,8.97,14.27,13.05c6.12,6.93,66.88,72.59,129.69,139.88,40.37,43.23,84.83,92.98,97.88,106.44l-4.49-207.17c-.41-26.51-3.26-35.48-15.9-38.74-7.34-1.63-13.87-2.04-17.54-2.04-4.49,0-5.71-1.22-5.71-2.85,0-2.45,3.26-2.85,8.16-2.86,18.35,0,37.93,1.22,42.41,1.22s17.94-1.22,34.66-1.22c4.49,0,7.34.41,7.34,2.85,0,1.63-1.63,2.45-4.49,2.85-3.26.41-5.71.82-10.6,1.63-11.42,2.45-14.27,8.56-14.27,36.7l-.82,238.17c0,26.92-.82,28.96-3.67,28.96-3.26,0-8.16-4.49-29.77-26.1-4.49-4.08-63.21-64.03-106.44-110.52-47.31-50.98-93.39-102.36-106.44-117.04l5.3,195.35c.82,33.44,4.89,44.04,15.91,47.31,7.75,2.04,16.72,2.45,20.39,2.45,2.04,0,3.26.82,3.26,2.45,0,2.45-2.45,3.26-7.34,3.26-23.25,0-39.56-1.22-43.23-1.22s-20.8,1.22-39.15,1.22c-4.08,0-6.53-.41-6.53-3.26,0-1.63,1.22-2.45,3.26-2.45,3.26,0,10.6-.41,16.72-2.45,10.2-2.86,12.23-14.68,12.23-51.79v-60.36Z"/>
  </g>
  <g>
    <path class="cls-2" d="M1042.9,740.05c-8.1-7.05-10.2-16.4-10.2-24.31,0-5.34,2.1-14.78,9.63-22.02,5.15-4.96,12.87-8.48,25.64-8.48,4.38,0,7.91.38,12.58,1.05,3.05.48,6.1.95,8.39,1.05.76,0,.86.48.86.95,0,.76-.29,1.62-.48,4.67-.09,2.67-.09,7.63-.19,8.77-.09,1.33-.29,1.81-.76,1.81-.67,0-.76-.57-.76-1.81,0-2.76-1.33-6.48-3.72-8.29-2.86-2.48-9.53-4.86-16.87-4.86-10.58,0-15.44,2.96-18.3,5.53-6.2,5.62-7.63,12.49-7.63,20.88,0,15.82,12.87,29.74,29.65,29.74,6.48,0,11.25-.67,14.58-3.91,1.72-1.81,2.67-4.19,3.15-6.86.19-.95.48-1.43,1.05-1.43.48,0,.48.67.48,1.33,0,.76-1.24,8.48-1.91,10.58-.57,1.53-.86,1.81-2.19,2.38-3.34,1.43-9.72,1.91-15.06,1.91-12.58,0-21.16-2.86-27.93-8.67Z"/>
    <path class="cls-2" d="M1119.35,716.89c0-12.68,9.82-31.65,33.36-31.65,18.87,0,33.27,11.25,33.27,30.41s-13.44,33.08-33.74,33.08c-23.35,0-32.89-17.35-32.89-31.84ZM1177.02,718.03c0-19.16-11.82-29.83-24.88-29.83s-23.93,8.2-23.93,26.21,10.39,31.08,26.4,31.08c6.39,0,22.4-3.24,22.4-27.45Z"/>
    <path class="cls-2" d="M1232.03,724.32c0,10.96.38,16.49,2,18.02,1.53,1.33,3.43,1.91,10.01,1.91,4.19,0,8.01,0,10.1-2.67.95-1.43,1.62-3.34,1.81-4.77.1-.76.29-1.14.76-1.14.38,0,.57.29.57,1.24s-.57,6.39-1.14,8.58c-.57,1.91-.48,2.38-5.05,2.38-6.48,0-13.63-.48-23.16-.48-3.15,0-5.05.29-8.39.29-.95,0-1.53-.19-1.53-.76,0-.29.29-.57,1.05-.57s1.52,0,2.29-.19c1.62-.29,2.19-2.19,2.48-4.48.57-3.62.38-10.2.38-17.54v-14.3c0-12.58,0-14.68-.19-17.25-.19-2.67-.57-4.38-3.81-4.77-.57-.09-1.62-.09-2.38-.09-.67,0-1.05-.29-1.05-.67,0-.48.48-.67,1.43-.67,4,0,9.72.29,9.91.29,1.33,0,7.15-.29,9.82-.29.95,0,1.24.29,1.24.67s-.48.67-1.05.67c-.67,0-1.62.09-2.57.19-2.67.38-3.24,1.91-3.43,4.67-.19,2.57-.1,4.67-.1,17.25v14.49Z"/>
    <path class="cls-2" d="M1301.05,724.32c0,10.96.38,16.49,2,18.02,1.53,1.33,3.43,1.91,10.01,1.91,4.19,0,8.01,0,10.1-2.67.95-1.43,1.62-3.34,1.81-4.77.1-.76.29-1.14.76-1.14.38,0,.57.29.57,1.24s-.57,6.39-1.14,8.58c-.57,1.91-.48,2.38-5.05,2.38-6.48,0-13.63-.48-23.16-.48-3.15,0-5.05.29-8.39.29-.95,0-1.53-.19-1.53-.76,0-.29.29-.57,1.05-.57s1.52,0,2.29-.19c1.62-.29,2.19-2.19,2.48-4.48.57-3.62.38-10.2.38-17.54v-14.3c0-12.58,0-14.68-.19-17.25-.19-2.67-.57-4.38-3.81-4.77-.57-.09-1.62-.09-2.38-.09-.67,0-1.05-.29-1.05-.67,0-.48.48-.67,1.43-.67,4,0,9.72.29,9.91.29,1.33,0,7.15-.29,9.82-.29.95,0,1.24.29,1.24.67s-.48.67-1.05.67c-.67,0-1.62.09-2.57.19-2.67.38-3.24,1.91-3.43,4.67-.19,2.57-.1,4.67-.1,17.25v14.49Z"/>
    <path class="cls-2" d="M1362.25,709.83c0-12.49,0-14.78-.19-17.35-.19-2.67-.86-4-3.62-4.58-.57-.1-1.53-.19-2.29-.19-.67,0-1.24-.29-1.24-.57,0-.57.48-.76,1.43-.76,1.91,0,4.48.19,9.82.29.48,0,17.44,0,19.35-.1,1.91-.09,2.96-.19,3.72-.48.57-.19.67-.29,1.05-.29.19,0,.38.19.38.67,0,.57-.57,1.91-.76,4.29-.09,1.62-.19,3.15-.29,4.96,0,.86-.19,1.43-.67,1.43s-.67-.38-.67-1.05c-.1-1.43-.38-2.38-.67-3.05-.57-1.91-1.43-2.57-6.2-2.86-1.24-.09-10.68-.19-10.87-.19-.29,0-.48.19-.48.76v21.64c0,.57.1.95.57.95,1.14,0,10.87-.09,12.87-.29,2.19-.1,3.62-.38,4.38-1.43.38-.57.67-.76,1.05-.76.19,0,.38.09.38.57s-.38,2.29-.67,5.05c-.29,2.67-.29,4.58-.38,5.81-.1.76-.29,1.05-.67,1.05-.48,0-.57-.57-.57-1.24,0-.57-.1-1.53-.29-2.29-.38-1.24-.95-2.57-4.58-2.86-2.19-.19-9.91-.38-11.44-.38-.57,0-.67.29-.67.67v6.96c0,2.96-.09,11.34,0,12.96.19,3.53.67,5.34,2.67,6.2,1.43.67,3.72.86,6.96.86,1.81,0,4.86.09,7.24-.57,2.86-.86,3.53-2.76,4.29-6.29.19-.95.48-1.33.86-1.33.57,0,.57.86.57,1.43,0,.67-.76,6.67-1.05,8.29-.38,1.91-1.05,2.1-4.19,2.1-6.29,0-8.96-.19-12.3-.19-3.34-.1-7.72-.29-11.25-.29-2.19,0-4,.29-6.29.29-.86,0-1.33-.19-1.33-.67,0-.38.38-.67.86-.67.57,0,1.24-.09,1.91-.29,1.72-.38,2.86-1.62,3.05-7.53.1-3.24.19-7.15.19-14.39v-14.3Z"/>
    <path class="cls-2" d="M1480.35,740.62c0,3.81-.09,3.91-1.14,4.48-5.24,2.67-12.87,3.62-17.54,3.62-6.2,0-18.21-.48-27.93-8.58-5.15-4.29-10.29-12.3-10.29-23.16,0-12.96,6.58-22.21,14.39-26.88,7.34-4.29,15.44-4.86,21.26-4.86,6.1,0,10.2.76,13.63,1.33,1.52.29,5.24.76,7.24.86.76,0,.76.38.76.76,0,1.14-.67,4-.67,12.39,0,1.33-.09,1.72-.76,1.72-.48,0-.57-.57-.67-1.14,0-.86-.38-3.81-1.81-5.91-2.19-3.15-9.06-6.67-19.73-6.67-5.15,0-11.15.19-17.54,5.05-4.86,3.72-8.01,10.96-8.01,20.4,0,11.34,6.2,19.73,8.67,22.11,6.29,6.1,13.34,8.87,21.64,8.87,2.67,0,6.86-.48,9.06-1.62.95-.57,1.62-1.52,1.62-2.86v-13.73c0-6.29-.48-7.53-3.81-8.01-.57-.09-1.53-.19-2.29-.19s-1.14-.38-1.14-.67c0-.48.38-.67,1.43-.67,3.81,0,9.34.19,9.72.19s6.01-.19,8.58-.19c.95,0,1.33.19,1.33.67,0,.29-.29.67-1.14.67-.67,0-.86,0-1.62.1-2.29.29-2.86,2-3.05,4.77-.19,2.76-.19,5.15-.19,8.58v8.58Z"/>
    <path class="cls-2" d="M1524.59,709.83c0-12.49,0-14.78-.19-17.35-.19-2.67-.86-4-3.62-4.58-.57-.1-1.53-.19-2.29-.19-.67,0-1.24-.29-1.24-.57,0-.57.48-.76,1.43-.76,1.91,0,4.48.19,9.82.29.48,0,17.44,0,19.35-.1,1.91-.09,2.96-.19,3.72-.48.57-.19.67-.29,1.05-.29.19,0,.38.19.38.67,0,.57-.57,1.91-.76,4.29-.09,1.62-.19,3.15-.29,4.96,0,.86-.19,1.43-.67,1.43s-.67-.38-.67-1.05c-.1-1.43-.38-2.38-.67-3.05-.57-1.91-1.43-2.57-6.2-2.86-1.24-.09-10.68-.19-10.87-.19-.29,0-.48.19-.48.76v21.64c0,.57.1.95.57.95,1.14,0,10.87-.09,12.87-.29,2.19-.1,3.62-.38,4.38-1.43.38-.57.67-.76,1.05-.76.19,0,.38.09.38.57s-.38,2.29-.67,5.05c-.29,2.67-.29,4.58-.38,5.81-.1.76-.29,1.05-.67,1.05-.48,0-.57-.57-.57-1.24,0-.57-.1-1.53-.29-2.29-.38-1.24-.95-2.57-4.58-2.86-2.19-.19-9.91-.38-11.44-.38-.57,0-.67.29-.67.67v6.96c0,2.96-.09,11.34,0,12.96.19,3.53.67,5.34,2.67,6.2,1.43.67,3.72.86,6.96.86,1.81,0,4.86.09,7.24-.57,2.86-.86,3.53-2.76,4.29-6.29.19-.95.48-1.33.86-1.33.57,0,.57.86.57,1.43,0,.67-.76,6.67-1.05,8.29-.38,1.91-1.05,2.1-4.19,2.1-6.29,0-8.96-.19-12.3-.19-3.34-.1-7.72-.29-11.25-.29-2.19,0-4,.29-6.29.29-.86,0-1.33-.19-1.33-.67,0-.38.38-.67.86-.67.57,0,1.24-.09,1.91-.29,1.72-.38,2.86-1.62,3.05-7.53.1-3.24.19-7.15.19-14.39v-14.3Z"/>
  </g>
  <rect class="cls-2" x="670.19" y="713.94" width="316.16" height="6.56"/>
  <rect class="cls-2" x="1598.12" y="713.94" width="316.16" height="6.56"/>
  <g>
    <path class="cls-1" d="M614.6,758.41c-12.03-18.84-24.06-37.68-36.09-56.51,2.67-18.65,38.91-51.38,28.6-72.17-7.01-14.13-58.61-14.72-78.3-19.75-4.32-23.46-40-27.29-67.41-26.55-.45-.68-.91-1.36-1.36-2.04v-61.96c4.94-10.51,20.02-15.23,23.83-25.87,3.2-8.95,1.92-34.31-2.04-40.17-7.12-10.53-44.69-13.36-58.56-19.06-.23-26.55-.45-53.11-.68-79.66,10.86-10.64,38.78-15.73,43.58-31.32,5.22-16.95-31.14-39.15-40.85-46.98-33.63-27.13-62.54-61.86-87.83-97.37-9.04-12.7-22-22.59-21.79-44.26,3.63-2.27,7.26-4.54,10.89-6.81h16.34c19.52-16.57,37.8-34.83,57.32-51.4,5.9-5.7,38.08-33.38,35.18-32.98-13.73,1.89-45.16,10.07-56.87,13.39-18.36,5.22-36.54,10.62-54.69,16.52-2.27,3.86-4.54,7.72-6.81,11.57h-.68c-5.05-21,.7-34.03-25.87-33.36-5.25,2.48-9.9,3.68-12.94,8.17-4.9,7.24-5.07,37.68-2.04,48.34-6.56,7.57-11,3.25-21.11,6.81-7.76,2.73-46.82,24.86-50.39,30.64-5.81,9.43,2.06,16.14,5.45,21.79,1.36,6.13,2.72,12.26,4.09,18.38,10.91,14.63,31.46-6.48,41.53-8.85-3.75,16.33-20.09,31.91-29.28,44.26-22.29,29.95-44.04,59.42-66.05,89.2-7.12,9.63-38.49,35.32-29.96,52.43,5.61,11.24,33.53,12.77,45.62,17.7v66.73c-18.61,9.08-37.22,18.16-55.83,27.24-2.86,3.99-2.71,10.16-2.72,17.02-.04,32.1,13.19,20.9,23.83,38.13,3.71,6.01,1.75,39.83.68,48.34-9.76.45-19.52.91-29.28,1.36-37.65,7.51-79.93,13.44-93.28,44.94-8.1,19.12-3.4,56.03-3.4,81.02,0,28-4.05,62.98,11.57,75.58,32,25.79,98.85,38.58,160.01,30.64,26.44-3.43,51.91-3.42,78.98-8.85,61.67-12.38,118.86-26.82,185.2-37.45,38.74-6.21,86.49-1.37,117.11,7.49,10.73,3.1,32.01,13.52,42.21,6.13,4.56-3.3,7.25-13.43,4.09-20.43ZM291.18,67.32c.91-.68,1.82-1.36,2.72-2.04.91.23,1.82.45,2.72.68,4.44,2.68,5.74,25.26,2.72,32-1.53,2.82-4.21,4.43-7.49,5.45-.45-.23-.91-.45-1.36-.68-1.4-10.23-1.46-26.21.68-35.41ZM595.54,764.54c-30.26-12.23-73.26-16.94-117.14-16.03-22.68.47-56.99,6.95-81.76,11.59-83.93,15.73-229.18,57.2-324.02,27.58-15.44-4.82-32.26-12.74-40.17-25.19-4.69-7.37-3.4-21.38-3.4-33.36,0-24.43-5.65-84.06,3.4-100.09,18.93-33.5,74.66-30.69,122.56-36.09,2.47-4.24,4.93-60.28,2.04-68.09-3.75-10.16-18.32-15.16-24.51-23.15v-17.02c19.29-9.3,38.59-18.61,57.87-27.92.23-28.82.45-57.65.68-86.47-9.26-7.22-31.82-12.71-44.94-14.3-.68-1.13-1.36-2.27-2.04-3.4,42.1-43.16,76.17-96.19,110.98-146.39,13.63-19.65,35.91-39.34,35.41-71.49-.23-.45-.45-.91-.68-1.36-.68-.23-1.36-.45-2.04-.68-5.45,2.95-10.89,5.9-16.34,8.85-4.19,3.12-4.12,9.94-8.85,12.94-10.89,6.13-21.79,12.26-32.68,18.38h-2.72c-1.51-3.4-.5-5.47,0-10.21-2.5-2.04-4.99-4.09-7.49-6.13v-2.72c12.94-7.72,25.87-15.43,38.81-23.15,3.18.45,6.36.91,9.53,1.36,21.56-12.48,43.12-24.97,64.68-37.45,1.85-3.01,1.74-3.46,1.36-8.17,14.07-4.77,28.14-9.53,42.21-14.3,1.97-.64,10.91-4.2,12.73-4.2.23.23-4.18,3.65-4.81,4.11-.21.18-2.53,2.2-2.92,2.55-13.62,11.8-26.1,22.51-39.72,34.31-3.68-1.07-2.74-2.17-6.13-3.4-10.67,5.9-21.34,11.8-32,17.7-15.23,21.2,11.28,50.97,19.06,61.96,33.23,46.89,79.7,100.16,128.01,131.41v2.04c-14.07,8.4-28.14,16.8-42.21,25.19v101.45c7.17,10.92,51.54,8.03,60.6,18.38v23.83c-1.38,2.34-21.84,24.43-24.51,26.55v81.71c8,4.99,22.17.93,33.36,3.4,9.53,2.27,19.07,4.54,28.6,6.81.23.45.45.91.68,1.36v.68c-16.11.23-32.02.7-48.25,1.57-10.42.75-19.61,1.38-29.37,2.52-4.89-10.79-1.36-60.65-1.36-76.94v-25.87c2.74-7.99,20.27-19.08,24.51-26.55v-7.49c-18.28-9.68-44.19-10.11-65.36-15.66-27.38-7.18-55.65-13.65-84.43-20.43-9.11-2.14-18.48-6.79-29.28-6.81-5.87,13.04,14.78,33.57,17.7,44.94-.23,54.24-.45,108.49-.68,162.73-57.33,12.66-138.17,25.93-192.69,4.09-.45-.91-.91-1.82-1.36-2.72v-.68c19.52-.23,39.04-.45,58.56-.68,3.51-5.91,1.35-20.34.73-29.11-.22-.77-.2-1.52-.73-1.53-10.87.63-30.99,3.23-38.9,4.08-28.8,3.09-57.4,4.08-70.72,24.52.15,15.59,14.94,18.89,26.55,23.15,22.18,8.14,61.16,12.4,90.56,11.57,10.67-.23,23.07-1.38,34.25-2.47,34.58-4.2,66-6.73,98.52-13.88,87.7-19.28,199.33-49.12,297.54-17.7-1.36,16.42-25.84,45.78-32.68,62.64,12.48,19.97,24.97,39.95,37.45,59.92-.75,2.92-.21,1.91-2.04,3.4ZM404.89,611.34c1.38.93,1.11.75,2.04,2.04-11.39,11.23-55.86-3.29-72.17-4.09v3.4c5.34,3.82,8.51,6.97,14.98,10.21.68.45,1.36.91,2.04,1.36v2.04c-7.72,1.3-17.12,5.98-24.51,4.09v-81.02c1.96-7.16,8.09-14.66,13.62-18.38,23.78-16.02,60.77,6.79,62.64,28.6-22.24-4.54-44.49-9.08-66.73-13.62-.45.23-.91.45-1.36.68v2.04c15.62,16.38,48.09,15.2,71.49,23.83v7.49c-.45.23-.91.45-1.36.68-23.15-4.54-46.3-9.08-69.45-13.62l-.68.68c.23.68.45,1.36.68,2.04,8.88,16.31,49.17,17.38,69.45,21.79.68.91,1.36,1.82,2.04,2.72-.23,1.36-.45,2.72-.68,4.09-13.64,5.82-53.93-9.48-71.49-10.21l-.68.68v2.04c16.65,16.72,45.1,11.04,70.13,20.43ZM338.84,509.89c1.36.23,2.72.45,4.09.68.45,1.59.91,3.18,1.36,4.77-7.24,13.2-23.68,11.77-28.6,35.41-.23,27.46-.45,54.93-.68,82.39-.23.68-.45,1.36-.68,2.04-2.27.23-4.54.45-6.81.68-3.48-9.77-1.36-27.29-1.36-39.49,0-57.1-.56-61.27,32.68-86.47ZM350.42,491.51c9.16.16,23.62,2.51,29.96,6.81.68.45,1.36.91,2.04,1.36-1.82,5.22-3.63,10.44-5.45,15.66-5.25,2.41-14.98.04-21.79-1.36-2.86-4.72-6.61-16.01-4.77-22.47Z"/>
    <path class="cls-1" d="M411.4,306.09c-3.05-8.75-26.34-26.32-34.04-32.68-20.26-16.75-39.3-45.14-55.15-66.73-5.26-7.17-10.06-12.45-14.96-18.05-1.35-1.69-4.55-6-6.14-6.46-6.33,26.9-19.19,49.22-29.96,72.17.23,1.36.45,2.72.68,4.09,46.52,15.89,93.06,31.78,139.58,47.66Z"/>
    <path class="cls-1" d="M367.82,308.81c-17.08-6.49-54.31-23.72-72.17-24.51-2.83,6.11-1.36,18.8-1.36,27.24v107.58c2.52,5.3,18.82,5.1,25.19,6.81,12.65,3.39,63.97,19.5,74.22,17.02v-123.92c-3.86-6.11-18.64-7.47-25.87-10.21ZM307.23,363.96c3.95-26.88,11.46-30.83,29.96-42.9,9-.07,15.11,1.02,21.11,2.72-11.27,7.93-20.56,3.86-29.28,16.34-14.72,21.07-4.86,55.75,11.57,67.41,6.81,2.72,13.62,5.45,20.43,8.17-22.75,17.82-57.39-27.22-53.79-51.75ZM367.82,355.79c-2.5,4.08-4.99,8.17-7.49,12.26-1.13,8.4-2.27,16.8-3.4,25.19h-.68c-1.68-6.7-7.1-22.81-4.77-29.28,4.77-3.63,9.53-7.26,14.3-10.89,1.55,1.21,2.37-.52,2.04,2.72Z"/>
    <path class="cls-1" d="M463.15,654.7c-1.59-.45-3.18-.91-4.77-1.36-6.85,5.99-20.83,11.08-24.51,19.75.45.68.91,1.36,1.36,2.04,4.54-.48,5.7-1.77,8.85-3.4h2.72v47.66c-1.66,2.67-8.32,3.11-10.89,4.77v2.72c6.68,3.07,25.53.45,34.72-1.36.45-.23.91-.45,1.36-.68v-4.09c-2.72-.45-5.45-.91-8.17-1.36-4.32-17.77-.81-43.84-.68-64.68Z"/>
    <path class="cls-1" d="M352.16,694.19c-1.29-.95-.41-.05-1.36-1.36-.23-1.13-.45-2.27-.68-3.4l.68-1.36c8.71-2.48,16.06-3.91,24.51-.68,1.28-.95,1.12-.64,2.04-2.04.45-4.31.91-8.62,1.36-12.94-1.48-2.2-1.17-1.86-4.77-2.04-8.75,4.82-25.01,2.3-31.32,9.53-.91,8.85-1.82,17.7-2.72,26.55,9.06,3.95,18.93,1.44,23.15,10.21,8.57,9.9-6.45,29.71-19.06,23.83-2.62-1.65-3.93-6.29-5.45-8.85h-2.72c-1.68,7.17-2.73,11.43-.68,17.7.91.45,1.82.91,2.72,1.36,16.37,6.88,47.01-20.48,42.21-38.81-3.5-13.38-15.87-12.67-27.92-17.7Z"/>
    <path class="cls-1" d="M269.1,722.11c.87-5.64,6.91-13.85,10.21-18.38-.58-6.33-3.29-10.87-8.17-12.94-3.18-.45-6.36-.91-9.53-1.36-15.62,5.47-45.79,20.98-19.06,36.77v2.04c-8.14,10.04-25.86,31.62,0,38.81,26.19,7.29,56.07-34.04,26.55-44.94ZM247.99,705.08c1.74-4.23,3.73-4.68,7.49-6.81,2.27.23,4.54.45,6.81.68.45.68.91,1.36,1.36,2.04,1.61,6.09-.35,14.32-4.77,16.34-8.74,3.99-12.45-6.31-10.89-12.26ZM265.69,747.98c-2.19,5.47-6.27,7.86-11.57,10.21-2.27-.45-4.54-.91-6.81-1.36-1.36-2.04-2.72-4.09-4.09-6.13-.12-10.94,4.05-14.66,9.53-19.75,6.24.55,10.1,3.55,12.94,7.49v9.53Z"/>
    <path class="cls-1" d="M171.73,703.04l-3.4-3.4h-2.04c-8.17,5.67-16.34,11.35-24.51,17.02.23,1.13.45,2.27.68,3.4,4.08-.91,8.17-1.82,12.26-2.72-.23,16.11-.45,32.23-.68,48.34-2.23,1.33-5.85,1.56-8.85,2.72-.68.45-1.36.91-2.04,1.36v2.72c7.91,3.68,27.2,1.53,35.41,0l1.36-1.36v-2.72c-2.72-.45-5.45-.91-8.17-1.36-6.67-12.37-.33-48.15,0-64Z"/>
  </g>
</svg>